# xmcd
# Copyright (C) 1995-1998 Ti Kan
#
# Track frame offsets:
#       150
#       19811
#       38419
#       55991
#       73656
#       90684
#       111675
#       131180
#       151525
#       171841
#       193882
#       218226
#
# Disc length: 3175 seconds
#
# Revision: 0
# Processed by: cddbd v1.4PL0 Copyright (c) Steve Scherf et al.
# Submitted via: CD-Transfer v1.0
#
DISCID=ab0c650c
DTITLE=Jaywalk - 
DYEAR=2003
DGENRE=
TTITLE0=You Will Make Your Way
TTITLE1=Sugar Brown
TTITLE2=Shy
TTITLE3=She's Waiting
TTITLE4=Meeting
TTITLE5=I Feel
TTITLE6=Dessert Of Stones
TTITLE7=Dance
TTITLE8=You Should
TTITLE9=One Year Ago
TTITLE10=Good Night
TTITLE11=You Will Make Your Way (Remix)
EXTD=
EXTT0=
EXTT1=
EXTT2=
EXTT3=
EXTT4=
EXTT5=
EXTT6=
EXTT7=
EXTT8=
EXTT9=
EXTT10=
EXTT11=
PLAYORDER=
